<?xml version="1.0" standalone="no"?>
<!DOCTYPE svg PUBLIC "-//W3C//DTD SVG 20010904//EN"
 "http://www.w3.org/TR/2001/REC-SVG-20010904/DTD/svg10.dtd">
<svg version="1.0" xmlns="http://www.w3.org/2000/svg"
 width="1024.000000pt" height="1024.000000pt" viewBox="0 0 1024.000000 1024.000000"
 preserveAspectRatio="xMidYMid meet">

<g transform="translate(0.000000,1024.000000) scale(0.100000,-0.100000)"
fill="#000000" stroke="none">
<path d="M2419 5777 c5 -5 19 -7 32 -5 20 3 19 5 -9 9 -20 3 -29 2 -23 -4z"/>
<path d="M2220 5679 l-165 -98 -6 -113 c-3 -62 -6 -273 -5 -468 l1 -354 110
-64 c61 -36 174 -103 253 -150 78 -46 144 -83 145 -81 1 2 1 192 -1 421 l-3
418 -70 56 c-39 31 -71 54 -73 52 -55 -87 -61 -91 -76 -55 -12 27 -70 231 -70
244 0 6 59 13 132 17 77 4 137 11 143 18 7 8 5 9 -7 5 -10 -4 -18 -2 -18 3 0
5 -11 12 -25 16 -14 3 -25 12 -25 20 0 13 -12 18 -32 15 -5 0 -7 2 -6 7 4 13
-13 52 -23 52 -5 0 -9 9 -9 20 0 11 -5 20 -11 20 -6 0 -3 7 5 16 9 8 14 20 11
25 -8 12 -35 12 -35 -1 0 -5 -10 -10 -22 -10 -23 0 -23 0 4 23 14 12 35 27 45
34 10 6 14 12 8 12 -5 -1 -84 -45 -175 -100z"/>
<path d="M2758 5600 c-21 -11 -69 -40 -108 -65 -38 -25 -74 -45 -78 -45 -5 0
-23 -15 -41 -34 l-33 -34 27 -18 c25 -17 28 -17 37 -1 8 15 32 17 203 17 l195
0 0 50 c0 28 -3 49 -7 48 -18 -3 -41 15 -36 28 4 10 0 12 -11 8 -9 -3 -16 -2
-16 4 0 8 -83 62 -94 62 -1 0 -18 -9 -38 -20z"/>
<path d="M5150 5375 l0 -165 -45 34 c-152 117 -375 33 -431 -162 -12 -40 -15
-79 -11 -137 8 -136 60 -223 162 -271 99 -47 258 -25 302 43 19 28 33 16 33
-29 0 -28 1 -28 65 -28 l65 0 0 440 0 440 -70 0 -70 0 0 -165z m-80 -226 c57
-32 84 -89 84 -174 0 -83 -21 -134 -70 -171 -37 -29 -94 -40 -148 -30 -155 29
-188 300 -45 374 57 29 128 29 179 1z"/>
<path d="M5920 5368 l0 -172 -32 31 c-54 51 -95 67 -173 67 -157 1 -276 -115
-291 -286 -13 -129 50 -270 142 -324 37 -22 63 -28 125 -32 94 -5 151 12 198
60 l31 32 0 -42 0 -42 65 0 65 0 0 440 0 440 -65 0 -65 0 0 -172z m-92 -218
c111 -50 124 -257 23 -343 -40 -33 -68 -41 -132 -35 -116 12 -188 144 -149
277 29 102 151 150 258 101z"/>
<path d="M3017 5494 c-3 -3 -3 -22 0 -42 6 -37 26 -59 73 -84 14 -7 31 -19 39
-26 7 -7 20 -11 28 -8 8 3 11 1 8 -4 -4 -6 1 -17 9 -26 13 -13 16 -45 16 -192
l0 -176 24 33 c23 31 25 32 37 14 8 -13 19 -18 35 -15 l23 4 -20 21 c-11 12
-15 23 -10 25 8 3 8 10 1 23 -6 11 -7 19 -2 19 10 0 62 99 62 118 0 6 -5 12
-11 14 -5 2 2 15 17 28 15 14 24 20 21 14 -4 -7 0 -15 9 -18 24 -9 34 -7 34 6
0 6 -3 8 -7 5 -3 -4 -11 3 -17 15 -13 25 -115 90 -129 81 -5 -3 -2 -10 6 -15
23 -12 9 -38 -20 -38 -18 0 -24 4 -19 15 3 9 -3 20 -14 27 -11 7 -20 16 -20
21 0 4 5 5 10 2 6 -3 10 -3 10 2 0 4 -14 14 -30 21 -17 8 -27 18 -24 23 3 6 0
17 -7 25 -19 24 -126 94 -132 88z m203 -245 c0 -5 -4 -9 -10 -9 -5 0 -10 7
-10 16 0 8 5 12 10 9 6 -3 10 -10 10 -16z m60 -259 c0 -5 -4 -10 -10 -10 -5 0
-10 5 -10 10 0 6 5 10 10 10 6 0 10 -4 10 -10z"/>
<path d="M4047 5323 c-41 -98 -119 -281 -172 -408 -53 -126 -99 -236 -102
-242 -4 -10 15 -13 75 -13 l80 0 23 68 c12 37 28 79 36 95 l14 27 193 0 193 0
16 -37 c9 -21 26 -64 38 -95 l20 -58 76 0 c67 0 75 2 70 18 -5 18 -232 575
-296 727 l-38 90 -75 3 -75 3 -76 -178z m234 -196 c27 -71 49 -133 49 -138 0
-5 -61 -9 -140 -9 -77 0 -140 2 -140 4 0 4 113 292 131 336 10 24 11 23 31
-20 11 -25 42 -103 69 -173z"/>
<path d="M2610 5351 c0 -4 28 -30 63 -57 34 -27 102 -81 150 -121 l89 -73 75
0 c71 0 74 -1 71 -22 -2 -17 -10 -23 -32 -25 -15 -1 -30 -4 -32 -5 -2 -2 27
-30 63 -61 37 -31 68 -55 70 -53 3 2 1 65 -3 140 l-7 135 -65 3 c-75 3 -78 7
-87 91 l-6 57 -175 0 c-96 0 -174 -4 -174 -9z"/>
<path d="M3020 5305 c0 -34 1 -35 37 -35 l37 0 -34 35 c-19 19 -35 35 -37 35
-2 0 -3 -16 -3 -35z"/>
<path d="M3215 5320 c3 -5 10 -10 16 -10 5 0 9 5 9 10 0 6 -7 10 -16 10 -8 0
-12 -4 -9 -10z"/>
<path d="M6435 5291 c-128 -34 -208 -113 -241 -240 -19 -78 -13 -153 21 -227
51 -114 152 -174 290 -174 135 0 231 57 292 172 25 47 28 63 28 148 0 83 -3
101 -27 145 -57 108 -152 172 -270 180 -34 2 -76 1 -93 -4z m166 -144 c74 -49
102 -134 79 -236 -15 -67 -69 -126 -126 -137 -128 -24 -217 45 -231 180 -9 87
44 181 117 209 8 3 40 6 71 6 43 1 64 -4 90 -22z"/>
<path d="M7166 5289 c-132 -33 -233 -151 -244 -284 -18 -229 156 -389 385
-353 73 11 123 38 167 90 l37 42 -22 16 c-11 9 -36 25 -55 35 l-35 18 -32 -30
c-44 -42 -69 -53 -118 -53 -98 0 -175 71 -186 171 -14 137 62 229 190 229 42
0 63 -6 101 -30 l48 -31 43 26 c24 14 47 30 51 36 10 16 -44 67 -102 95 -58
28 -165 39 -228 23z"/>
<path d="M7620 5058 c0 -125 5 -240 11 -261 13 -49 63 -105 114 -128 50 -23
152 -25 203 -3 20 8 52 29 70 46 l32 32 0 -42 0 -43 68 3 67 3 0 305 0 305
-67 3 -67 3 -3 -208 c-3 -234 -7 -247 -79 -284 -77 -39 -164 -17 -198 50 -19
37 -21 58 -21 241 l0 200 -65 0 -65 0 0 -222z"/>
<path d="M2610 4922 l0 -219 53 -28 c28 -16 67 -39 84 -53 42 -31 54 -28 183
54 106 67 140 92 140 103 0 3 -19 19 -41 35 l-41 29 -155 -2 -155 -2 4 23 c3
22 7 23 123 28 l119 5 -29 20 c-32 21 -32 21 -142 24 -66 1 -73 3 -73 21 0 18
7 20 63 20 l62 1 -35 29 c-19 16 -41 28 -47 25 -23 -8 -44 6 -38 25 4 12 -6
28 -30 49 -20 17 -38 31 -40 31 -3 0 -5 -98 -5 -218z m318 -138 c9 -3 10 -9 3
-22 -9 -17 -23 -19 -125 -19 -90 -1 -118 3 -128 14 -24 30 13 40 129 36 59 -3
114 -6 121 -9z"/>
<path d="M3289 4932 c-11 -5 -14 -13 -9 -26 3 -11 9 -15 12 -10 7 12 18 44 15
43 -1 0 -9 -3 -18 -7z"/>
</g>
</svg>
