<?xml version="1.0" standalone="no"?>
<!DOCTYPE svg PUBLIC "-//W3C//DTD SVG 20010904//EN"
 "http://www.w3.org/TR/2001/REC-SVG-20010904/DTD/svg10.dtd">
<svg version="1.0" xmlns="http://www.w3.org/2000/svg"
 width="360.000000pt" height="120.000000pt" viewBox="0 0 360.000000 120.000000"
 preserveAspectRatio="xMidYMid meet">

<g transform="translate(0.000000,120.000000) scale(0.100000,-0.100000)"
fill="#000000" stroke="none">
<path d="M355 911 l-60 -38 -3 -225 -2 -226 47 -30 c77 -48 194 -114 196 -110
1 1 1 94 -1 205 l-3 203 -31 22 c-30 21 -31 21 -45 2 -12 -16 -15 -17 -23 -4
-9 14 -40 110 -40 124 0 3 33 7 73 9 50 2 65 6 50 11 -27 10 -58 55 -55 79 5
28 -36 19 -103 -22z"/>
<path d="M595 861 c-59 -34 -80 -55 -70 -72 6 -8 9 -8 14 0 4 6 44 11 99 12
88 1 92 2 92 23 0 15 -12 29 -39 44 -21 12 -40 22 -42 22 -2 0 -27 -13 -54
-29z"/>
<path d="M1808 845 c-2 -3 -3 -37 0 -76 2 -39 0 -69 -5 -67 -89 44 -128 46
-177 7 -39 -31 -56 -71 -56 -136 0 -72 26 -118 77 -140 43 -18 106 -12 132 11
22 20 31 20 31 1 0 -10 10 -15 30 -15 l30 0 0 210 0 210 -28 0 c-16 0 -31 -2
-34 -5z m-23 -196 c30 -30 28 -109 -4 -143 -50 -53 -132 -24 -147 52 -19 93
86 156 151 91z"/>
<path d="M2180 770 l0 -81 -27 21 c-44 32 -82 34 -133 8 -56 -29 -78 -68 -79
-137 -2 -103 63 -169 156 -158 24 2 53 13 63 22 18 16 20 17 20 2 0 -12 9 -17
30 -17 l30 0 0 210 0 210 -30 0 -30 0 0 -80z m-21 -127 c20 -23 22 -34 18 -77
-5 -60 -32 -86 -86 -86 -64 0 -100 62 -79 137 18 64 99 79 147 26z"/>
<path d="M1332 831 c-30 -5 -36 -13 -67 -86 -105 -249 -125 -298 -125 -306 0
-5 15 -9 34 -9 31 0 36 4 48 43 l15 42 97 3 96 3 20 -46 c18 -42 22 -45 56
-45 25 0 35 4 31 13 -3 6 -32 77 -65 157 -72 175 -100 240 -104 239 -2 -1 -18
-4 -36 -8z m19 -102 c6 -12 21 -50 34 -85 l23 -64 -69 0 c-38 0 -69 3 -69 8 0
10 61 162 66 162 2 0 8 -9 15 -21z"/>
<path d="M767 811 c4 -16 84 -91 97 -91 3 0 6 8 6 18 0 16 -83 92 -100 92 -5
0 -6 -8 -3 -19z m83 -51 c8 -5 11 -10 5 -10 -5 0 -17 5 -25 10 -8 5 -10 10 -5
10 6 0 17 -5 25 -10z"/>
<path d="M571 762 c0 -4 34 -33 75 -65 61 -48 80 -58 106 -55 36 3 52 -19 17
-24 -21 -3 -20 -5 14 -31 l37 -28 0 65 0 65 -37 3 c-35 3 -38 6 -43 38 l-5 35
-82 2 c-46 1 -83 -1 -82 -5z"/>
<path d="M770 735 c0 -8 7 -15 16 -15 14 0 14 3 4 15 -7 8 -14 15 -16 15 -2 0
-4 -7 -4 -15z"/>
<path d="M883 736 c4 -9 -1 -17 -14 -21 -16 -6 -19 -16 -19 -78 0 -44 4 -67 9
-58 7 10 13 11 30 2 19 -11 20 -10 10 11 -8 18 -6 31 5 53 10 20 12 31 5 36
-7 4 -4 9 6 13 9 3 21 4 26 0 5 -3 9 -1 9 4 0 6 -16 20 -36 31 -27 16 -35 18
-31 7z"/>
<path d="M2401 718 c-60 -31 -83 -66 -88 -130 -7 -96 45 -158 139 -165 101 -8
168 54 168 155 0 122 -114 195 -219 140z m109 -53 c54 -28 63 -114 18 -162
-32 -34 -99 -32 -127 3 -40 51 -21 142 33 164 31 13 44 12 76 -5z"/>
<path d="M2764 721 c-62 -28 -89 -73 -89 -146 1 -102 49 -149 152 -150 47 0
68 5 90 21 37 27 40 48 9 62 -20 9 -27 7 -42 -9 -26 -29 -85 -25 -118 7 -20
21 -26 37 -26 69 0 82 68 126 134 87 32 -19 33 -19 57 -1 l24 19 -23 20 c-23
19 -82 40 -112 40 -8 0 -33 -9 -56 -19z"/>
<path d="M3012 605 c3 -119 4 -126 29 -151 37 -36 97 -43 144 -16 28 17 35 18
35 7 0 -10 11 -15 35 -15 l36 0 -3 148 -3 147 -32 3 -33 3 0 -105 c0 -95 -2
-107 -22 -126 -32 -29 -81 -27 -107 6 -18 23 -21 41 -21 125 l0 99 -31 0 -31
0 4 -125z"/>
<path d="M561 561 c-1 -49 1 -96 5 -105 3 -8 25 -25 49 -37 l43 -22 61 37 c93
57 80 79 -46 76 -60 -1 -73 1 -73 14 0 13 12 16 56 16 34 0 53 4 49 10 -3 6
-28 10 -56 10 -27 0 -49 5 -49 10 0 6 12 10 26 10 22 0 25 2 14 15 -7 8 -18
15 -24 15 -6 0 -17 9 -24 20 -23 37 -30 21 -31 -69z m164 -86 c0 -11 -99 -20
-122 -11 -8 3 -11 11 -8 16 8 14 130 9 130 -5z"/>
</g>
</svg>
